<?xml version="1.0" encoding="utf-8"?>
<!-- Generator: Adobe Illustrator 16.0.0, SVG Export Plug-In . SVG Version: 6.00 Build 0)  -->
<!DOCTYPE svg PUBLIC "-//W3C//DTD SVG 1.1//EN" "http://www.w3.org/Graphics/SVG/1.1/DTD/svg11.dtd">
<svg version="1.1" id="Layer_1" xmlns="http://www.w3.org/2000/svg" xmlns:xlink="http://www.w3.org/1999/xlink" x="0px" y="0px"
	 width="313.75px" height="25px" viewBox="0 0 313.75 25" enable-background="new 0 0 313.75 25" xml:space="preserve">
<path fill="#EAEDEF" d="M78.7,6l-2.8,13h-3.4l2.8-13H78.7z M92.8,14.4l1.8-4.9l1,4.9H92.8z M96.6,19h3.1L97,6h-2.9
	c-0.6,0-1.2,0.4-1.4,1l-5,12h3.5l0.7-1.9h4.3L96.6,19z M87.8,14.7c0-3.4-4.7-3.6-4.7-5.1c0.1-0.7,0.7-1.1,1.4-1.1
	c1.1-0.1,2.3,0.1,3.3,0.6l0.6-2.8c-1-0.4-2.1-0.6-3.1-0.6c-3.3,0-5.7,1.8-5.7,4.3c0,1.9,1.7,2.9,2.9,3.5c1.3,0.6,1.8,1,1.7,1.6
	c0,0.9-1,1.301-2,1.301c-1.2,0-2.4-0.301-3.5-0.801L78.1,18.4c1.2,0.5,2.5,0.699,3.7,0.699C85.5,19.2,87.8,17.4,87.8,14.7 M73.9,6
	l-5.4,13h-3.6L62.2,8.6c0-0.5-0.4-0.9-0.8-1.1c-1-0.5-2.1-0.9-3.3-1.1L58.2,6h5.7c0.8,0,1.4,0.6,1.5,1.3l1.4,7.5L70.4,6H73.9z"/>
<path fill="#EAEDEF" d="M221.4,11.5v-1.3c0-0.5-0.5-1-1-1H219v2.3h-1.5V5h3.701C222.1,4.9,223,5.5,223.1,6.4v0.5
	c0,0.6-0.301,1.2-0.897,1.5c0.5,0.3,0.799,0.9,0.698,1.5v1.6H221.4 M218.9,7.7h1.601c0.301,0.1,0.701-0.1,0.801-0.4
	c0.101-0.3-0.1-0.7-0.399-0.8h-2L218.9,7.7 M240.202,11.5l-2.4-4.4v4.4h-3l-0.5-1.4H231.5l-0.5,1.4h-3.201c0,0-2-0.3-2-3.1
	c0-3.4,1.699-3.5,2.4-3.5h1.898v1.5h-1.5c-0.699,0.1-1.199,0.7-1.101,1.4v0.5c0,2.2,2.601,1.5,2.701,1.5l1.897-4.9h2.103l2.299,5.9
	V5h2.101L241,9.3V5h1.5v6.6L240.202,11.5 M232.202,8.5h1.5L233,6.6L232.202,8.5 M209.5,11.5V7l-1.9,4.5H206.4L204.5,7v4.5h-3
	l-0.5-1.4h-2.8l-0.5,1.4H196l2.5-6.6h2.1l2.301,6V5h2.398L207,9.1l1.7-4.1h2.399v6.6L209.5,11.5 M198.799,8.5h1.5L199.6,6.6
	L198.799,8.5 M211.9,11.5V5h4.699v1.5H213.4v1h3.101V9H213.4v1.1h3.199v1.4H211.9 M223.702,11.6V5h1.5v6.6H223.702 M227,20v-1.3
	c0-0.601-0.5-1-1.102-1h-1.601V20h-1.6v-6.5h3.899c1-0.2,1.898,0.5,2,1.5v0.4c0,0.6-0.301,1.199-0.899,1.5
	c0.5,0.3,0.799,0.896,0.799,1.5V20H227 M224.4,16.2h1.699c0.301,0.1,0.699-0.101,0.801-0.4c0.101-0.299-0.102-0.7-0.399-0.8
	c-0.101-0.1-0.299-0.1-0.399,0h-1.699L224.4,16.2 M216.299,20H214.9l-1.7-1.9l-1.7,1.9h-6v-6.5h5.898l1.801,2.1l1.9-2.1h5.102
	c1-0.1,1.898,0.5,2,1.5v0.4c0,1.896-0.701,2.5-2.803,2.5h-1.601V20H216.299 M214.299,16.8l2,2.3v-4.5L214.299,16.8 M207.1,18.6h3.4
	l1.6-1.8l-1.6-1.8h-3.4v1h3.301v1.5H207.1V18.6 M217.9,16.2h1.699c0.301,0.1,0.699-0.101,0.801-0.4c0.101-0.299-0.102-0.7-0.399-0.8
	c-0.101-0.1-0.299-0.1-0.399,0h-1.699L217.9,16.2 M238,20h-2.9v-1.5h2.5c0,0,0.898,0.1,0.898-0.5s-1.398-0.5-1.398-0.5
	c-1.102,0.2-2-0.6-2.199-1.6V15.6c-0.102-1,0.699-1.896,1.699-2h3.4V15h-2.5c0,0-0.898-0.2-0.898,0.5c0,0.5,1.199,0.5,1.199,0.5
	s2.5-0.2,2.5,1.8c0.1,1.101-0.6,2.101-1.801,2.3h-0.4L238,20 M229.4,20v-6.5h5V15H231v1h3.301v1.5H231v1.1h3.398V20H229.4 M243.6,20
	h-2.897v-1.5h2.5c0,0,0.897,0.1,0.897-0.5s-1.397-0.5-1.397-0.5c-1.103,0.2-2-0.6-2.201-1.7v-0.3c-0.101-1,0.701-1.9,1.701-2h3.397
	V15h-2.5c0,0-0.897-0.2-0.897,0.5c0,0.5,1.198,0.5,1.198,0.5s2.5-0.2,2.5,1.8c0.101,1.101-0.602,2.101-1.801,2.3h-0.397
	C243.702,20,243.702,20,243.6,20 M260,8h-2.5v8.9h2.5c1.102,0.1,2.201-0.301,3.102-1c1-0.9,1.601-2.104,1.601-3.4
	c0.101-2.4-1.8-4.4-4.199-4.5H260z M262,14.7c-0.602,0.5-1.5,0.8-2.299,0.7h-0.5V9.5h0.5C260.5,9.4,261.4,9.7,262,10.2
	c0.602,0.6,0.898,1.4,0.898,2.2C262.9,13.3,262.6,14.1,262,14.7z M265.4,16.9h1.699V8H265.4V16.9z M271.202,11.4
	c-1-0.4-1.302-0.6-1.302-1.1c0.101-0.6,0.601-1.1,1.199-1c0.5,0,1,0.3,1.398,0.7l0.898-1.2c-0.699-0.6-1.601-1-2.5-1
	c-1.398-0.1-2.601,1-2.699,2.4v0.1c0,1.2,0.5,1.9,2.1,2.4c0.4,0.1,0.803,0.3,1.201,0.5c0.299,0.2,0.5,0.5,0.5,0.899
	c0,0.697-0.602,1.301-1.201,1.301h-0.1c-0.801,0-1.5-0.5-1.801-1.2l-1.101,1.1c0.601,1.101,1.8,1.7,3,1.7c1.601,0.1,2.897-1.1,3-2.7
	V14C273.702,12.8,273.202,12.2,271.202,11.4z M274.299,12.5c0,2.5,2,4.6,4.5,4.6c0.801,0,1.5-0.199,2.199-0.5v-2
	c-0.5,0.604-1.199,1-2,1c-1.6,0-2.898-1.199-2.898-2.8v-0.2c-0.102-1.6,1.199-3,2.801-3.1c0.802,0,1.603,0.4,2.103,1v-2
	C280.4,8.1,279.604,8,278.9,8C276.299,7.8,274.299,9.9,274.299,12.5z M294.6,14l-2.301-6H290.5l3.701,9.1h0.896l3.698-9.1H297
	L294.6,14L294.6,14z M299.6,16.9h4.801v-1.5h-3.102V13h3v-1.5h-3v-2h3.102V8H299.6V16.9z M311.1,10.6c0-1.7-1.1-2.6-3.1-2.6h-2.5
	v8.9h1.701V13.3h0.198l2.302,3.601h2.1l-2.7-3.697C310.299,13,311.202,11.9,311.1,10.6L311.1,10.6z M307.702,12.1h-0.5V9.4h0.5
	c1.1,0,1.6,0.5,1.6,1.3C309.299,11.6,308.799,12.1,307.702,12.1z"/>
<path opacity="0.5" fill="#EAEDEF" enable-background="new    " d="M286.202,7.9c-2.5,0-4.603,2-4.603,4.6c0,2.5,2,4.6,4.603,4.7
	c2.6,0.1,4.6-2,4.698-4.6C290.799,10,288.799,7.9,286.202,7.9z"/>
<g>
	<path fill="#EAEDEF" d="M140.2,10c-0.6,0-1.4,0.2-1.8,0.9c-0.3-0.5-0.899-0.9-1.7-0.9c-0.5,0-1.1,0.1-1.5,0.7v-0.6h-1.1V15h1.1
		v-2.7c0-0.8,0.6-1.3,1.301-1.3c0.699,0,1.1,0.5,1.1,1.3V15h1.1v-2.7c0-0.8,0.6-1.3,1.301-1.3c0.699,0,1.1,0.5,1.1,1.3V15h1.1v-3
		C142.2,10.8,141.4,10,140.2,10z M147.1,10.8c-0.301-0.4-0.801-0.7-1.5-0.7c-1.4,0-2.4,1.1-2.4,2.6s1.1,2.6,2.4,2.6
		c0.699,0,1.199-0.3,1.5-0.7V15h1.1v-4.9h-1.1V10.8z M145.7,14.2c-0.9,0-1.5-0.7-1.5-1.6s0.6-1.6,1.5-1.6c0.9,0,1.5,0.7,1.5,1.6
		S146.6,14.2,145.7,14.2z M151.9,12.1l-0.5-0.1c-0.399-0.1-0.8-0.2-0.8-0.5s0.3-0.6,0.9-0.6s1.199,0.2,1.5,0.4l0.5-0.8
		c-0.5-0.3-1.201-0.5-2-0.5c-1.201,0-2,0.6-2,1.6c0,0.8,0.6,1.3,1.6,1.4l0.5,0.1c0.6,0.104,0.8,0.301,0.8,0.5
		c0,0.4-0.399,0.604-1.101,0.604c-0.799,0-1.299-0.2-1.6-0.5l-0.5,0.8c0.7,0.5,1.6,0.603,2.1,0.603c1.4,0,2.201-0.699,2.201-1.603
		C153.6,12.7,153,12.3,151.9,12.1z M157.299,14.2c-0.399,0-0.799-0.3-0.799-0.9v-2.1h1.898v-1H156.5V8.7h-1.1v1.5h-1v1h1v2.1
		c0,1.3,0.601,1.9,1.7,1.9c0.6,0,1.1-0.2,1.5-0.5l-0.399-0.9C157.9,14,157.6,14.2,157.299,14.2z M161.7,10c-1.4,0-2.4,1-2.4,2.6
		s1,2.6,2.5,2.6c0.701,0,1.4-0.2,2-0.7l-0.5-0.8c-0.399,0.3-0.899,0.5-1.399,0.5c-0.699,0-1.299-0.4-1.398-1.2h3.6v-0.4
		C164,11.1,163.1,10,161.7,10z M160.4,12.2c0.101-0.7,0.5-1.2,1.3-1.2c0.7,0,1.1,0.4,1.2,1.2H160.4z M166.299,10.7v-0.6h-1.1V15h1.1
		v-2.7c0-0.8,0.5-1.3,1.201-1.3c0.299,0,0.6,0.1,0.799,0.2l0.301-1.1c-0.199-0.1-0.5-0.1-0.801-0.1
		C167.1,10,166.6,10.2,166.299,10.7z M171.299,11c0.5,0,0.801,0.2,1.201,0.5l0.699-0.7c-0.4-0.5-1.1-0.8-1.801-0.8
		c-1.5,0-2.601,1.1-2.601,2.6c0,1.5,1,2.6,2.601,2.6c0.701,0,1.399-0.3,1.801-0.8l-0.699-0.7c-0.301,0.3-0.701,0.5-1.201,0.5
		c-0.799,0-1.398-0.601-1.398-1.6C169.9,11.6,170.5,11,171.299,11z M177.7,10.8c-0.3-0.4-0.8-0.7-1.5-0.7c-1.4,0-2.4,1.1-2.4,2.6
		s1.101,2.6,2.4,2.6c0.7,0,1.2-0.3,1.5-0.7V15h1.1v-4.9h-1.1V10.8z M176.299,14.2c-0.898,0-1.5-0.7-1.5-1.6s0.602-1.6,1.5-1.6
		c0.9,0,1.5,0.7,1.5,1.6S177.2,14.2,176.299,14.2z M181.4,10.7v-0.6h-1.102V15h1.102v-2.7c0-0.8,0.5-1.3,1.199-1.3
		c0.301,0,0.601,0.1,0.801,0.2l0.3-1.1c-0.199-0.1-0.5-0.1-0.8-0.1C182.2,10,181.7,10.2,181.4,10.7z M187.799,7.7v3
		c-0.299-0.4-0.799-0.7-1.5-0.7c-1.398,0-2.398,1.1-2.398,2.6c0,1.5,1.101,2.6,2.398,2.6c0.701,0,1.201-0.3,1.5-0.7V15h1.102V7.7
		H187.799z M186.4,14.2c-0.899,0-1.5-0.7-1.5-1.6s0.601-1.6,1.5-1.6c0.898,0,1.5,0.7,1.5,1.6S187.299,14.2,186.4,14.2z M114.2,12.6
		c0-2.4,1.1-4.5,2.8-5.9c-1.3-1-2.9-1.6-4.6-1.6c-4.1-0.1-7.4,3.3-7.4,7.5c0,4.2,3.3,7.6,7.4,7.6c1.7,0,3.3-0.601,4.6-1.601
		C115.3,17.1,114.2,15,114.2,12.6z"/>
	<path opacity="0.5" fill="#EAEDEF" enable-background="new    " d="M121.6,5c-1.7,0-3.3,0.6-4.6,1.6c1.7,1.4,2.8,3.5,2.8,5.9
		c0,2.4-1.1,4.5-2.8,5.9c1.3,1,2.9,1.6,4.6,1.6c4.1,0,7.4-3.4,7.4-7.5C129,8.4,125.7,5,121.6,5z"/>
	<path opacity="0.75" fill="#EAEDEF" enable-background="new    " d="M119.8,12.6c0-2.4-1.1-4.5-2.8-5.9c-1.7,1.4-3.8,3.5-3.8,5.9
		s2,4.5,3.8,5.9C118.7,17.1,119.8,15,119.8,12.6z"/>
</g>
<path fill="#EAEDEF" d="M13.332,7.552H9.989c-0.229,0-0.422,0.165-0.458,0.392l-1.352,8.57c-0.027,0.168,0.104,0.32,0.275,0.32
	h1.596c0.228,0,0.423-0.166,0.458-0.393l0.365-2.312c0.035-0.228,0.23-0.394,0.458-0.394h1.058c2.202,0,3.472-1.064,3.804-3.176
	c0.15-0.923,0.006-1.649-0.426-2.157C15.293,7.847,14.451,7.552,13.332,7.552z M13.718,10.681c-0.183,1.199-1.1,1.199-1.985,1.199
	h-0.505l0.354-2.239c0.021-0.136,0.138-0.234,0.275-0.234h0.231c0.603,0,1.173,0,1.467,0.343
	C13.73,9.955,13.784,10.26,13.718,10.681z"/>
<path fill="#EAEDEF" d="M23.322,10.643h-1.6c-0.137,0-0.254,0.101-0.275,0.235l-0.072,0.447l-0.111-0.162
	c-0.347-0.504-1.12-0.672-1.89-0.672c-1.769,0-3.279,1.339-3.573,3.219c-0.153,0.938,0.064,1.833,0.596,2.458
	c0.488,0.575,1.186,0.813,2.016,0.813c1.425,0,2.215-0.916,2.215-0.916l-0.071,0.444c-0.028,0.171,0.104,0.323,0.273,0.323h1.442
	c0.229,0,0.423-0.166,0.459-0.393l0.865-5.479C23.624,10.795,23.492,10.643,23.322,10.643z M21.091,13.757
	c-0.154,0.915-0.88,1.528-1.806,1.528c-0.464,0-0.835-0.148-1.074-0.432c-0.237-0.28-0.327-0.681-0.251-1.125
	c0.144-0.907,0.882-1.54,1.794-1.54c0.454,0,0.824,0.15,1.067,0.437C21.064,12.913,21.161,13.314,21.091,13.757z"/>
<path fill="#EAEDEF" d="M31.845,10.643h-1.608c-0.153,0-0.298,0.076-0.385,0.204l-2.217,3.267l-0.94-3.139
	c-0.06-0.197-0.24-0.332-0.446-0.332h-1.58c-0.192,0-0.326,0.188-0.266,0.368l1.772,5.199l-1.665,2.351
	c-0.132,0.186,0,0.439,0.226,0.439h1.607c0.152,0,0.296-0.074,0.382-0.2l5.349-7.72C32.203,10.895,32.071,10.643,31.845,10.643z"/>
<path fill="#EAEDEF" d="M37.169,7.552h-3.342c-0.227,0-0.423,0.165-0.458,0.392l-1.352,8.57c-0.027,0.168,0.104,0.32,0.275,0.32
	h1.715c0.16,0,0.296-0.115,0.32-0.273l0.385-2.43c0.035-0.227,0.229-0.393,0.458-0.393h1.058c2.202,0,3.472-1.065,3.804-3.177
	c0.149-0.923,0.006-1.649-0.427-2.157C39.13,7.847,38.289,7.552,37.169,7.552z M37.556,10.681c-0.182,1.199-1.098,1.199-1.985,1.199
	h-0.504l0.354-2.239c0.021-0.136,0.137-0.234,0.274-0.234h0.231c0.603,0,1.172,0,1.467,0.343
	C37.568,9.955,37.623,10.26,37.556,10.681z"/>
<path fill="#EAEDEF" d="M47.16,10.643h-1.6c-0.137,0-0.254,0.101-0.274,0.235l-0.072,0.447l-0.111-0.162
	c-0.347-0.504-1.118-0.672-1.891-0.672c-1.768,0-3.278,1.339-3.573,3.219c-0.152,0.938,0.064,1.833,0.597,2.458
	c0.489,0.575,1.185,0.813,2.016,0.813c1.425,0,2.214-0.916,2.214-0.916l-0.07,0.444c-0.027,0.171,0.104,0.323,0.275,0.323h1.44
	c0.229,0,0.423-0.166,0.459-0.393l0.865-5.479C47.462,10.795,47.332,10.643,47.16,10.643z M44.929,13.757
	c-0.153,0.915-0.88,1.528-1.807,1.528c-0.463,0-0.836-0.148-1.075-0.432c-0.236-0.28-0.325-0.681-0.251-1.125
	c0.145-0.907,0.882-1.54,1.793-1.54c0.454,0,0.824,0.15,1.068,0.437C44.903,12.913,45,13.314,44.929,13.757z"/>
<path fill="#EAEDEF" d="M49.046,7.787l-1.372,8.727c-0.027,0.168,0.104,0.32,0.273,0.32h1.379c0.229,0,0.424-0.166,0.459-0.393
	l1.352-8.569c0.027-0.169-0.103-0.321-0.273-0.321H49.32C49.184,7.552,49.066,7.651,49.046,7.787z"/>
</svg>
